HIERARCHY
ROOT Hips
{
	OFFSET 0.000000 0.000000 0.000000
	CHANNELS 6 Xposition Yposition Zposition Zrotation Xrotation Yrotation
	JOINT RightUpLeg
	{
		OFFSET -10.032200 0.000000 0.000000
		CHANNELS 3 Zrotation Xrotation Yrotation
		JOINT RightLeg
		{
			OFFSET 0.000000 -40.977000 0.000000
			CHANNELS 3 Zrotation Xrotation Yrotation
			JOINT RightFoot
			{
				OFFSET 0.000000 -38.933200 0.000000
				CHANNELS 3 Zrotation Xrotation Yrotation
				JOINT RightToe
				{
					OFFSET 0.000000 -1.977400 9.184000
					CHANNELS 3 Zrotation Xrotation Yrotation
					JOINT RightToeEnd
					{
						OFFSET 0.000000 2.335600 6.099100
						CHANNELS 3 Zrotation Xrotation Yrotation
						End Site
						{
						    OFFSET 0.000000 1.788000 4.669400
						}
					}
				}
			}
		}
	}
	JOINT LeftUpLeg
	{
		OFFSET 10.032200 0.000000 0.000000
		CHANNELS 3 Zrotation Xrotation Yrotation
		JOINT LeftLeg
		{
			OFFSET 0.000000 -40.977000 0.000000
			CHANNELS 3 Zrotation Xrotation Yrotation
			JOINT LeftFoot
			{
				OFFSET 0.000000 -38.933200 0.000000
				CHANNELS 3 Zrotation Xrotation Yrotation
				JOINT LeftToe
				{
					OFFSET 0.000000 -1.977400 9.184000
					CHANNELS 3 Zrotation Xrotation Yrotation
					JOINT LeftToeEnd
					{
						OFFSET 0.000000 2.335600 6.099100
						CHANNELS 3 Zrotation Xrotation Yrotation
						End Site
						{
						    OFFSET 0.000000 1.788000 4.669400
						}
					}
				}
			}
		}
	}
	JOINT Spine
	{
		OFFSET 0.000000 16.960900 0.000000
		CHANNELS 3 Zrotation Xrotation Yrotation
		JOINT Spine1
		{
			OFFSET 0.000000 13.413900 0.000000
			CHANNELS 3 Zrotation Xrotation Yrotation
			JOINT Spine2
			{
				OFFSET 0.000000 10.384400 0.000000
				CHANNELS 3 Zrotation Xrotation Yrotation
				JOINT LeftShoulder
				{
					OFFSET 2.000000 10.384400 0.000000
					CHANNELS 3 Zrotation Xrotation Yrotation
					JOINT LeftArm
					{
						OFFSET 15.649100 0.000000 0.000000
						CHANNELS 3 Zrotation Xrotation Yrotation
						JOINT LeftForeArm
						{
							OFFSET 0.000000 -26.641600 0.000000
							CHANNELS 3 Zrotation Xrotation Yrotation
							JOINT LeftHand
							{
								OFFSET 0.000000 -23.740600 0.000000
								CHANNELS 3 Zrotation Xrotation Yrotation
								JOINT LeftFinger0
								{
									OFFSET 0.000000 -7.620900 0.000000
									CHANNELS 3 Zrotation Xrotation Yrotation
									End Site
									{
									    OFFSET 0.000000 -5.000000 0.000000
									}
								}
							}
						}
					}
				}
				JOINT RightShoulder
				{
					OFFSET -2.000000 10.384400 0.000000
					CHANNELS 3 Zrotation Xrotation Yrotation
					JOINT RightArm
					{
						OFFSET -15.649100 0.000000 0.000000
						CHANNELS 3 Zrotation Xrotation Yrotation
						JOINT RightForeArm
						{
							OFFSET 0.000000 -26.641600 0.000000
							CHANNELS 3 Zrotation Xrotation Yrotation
							JOINT RightHand
							{
								OFFSET 0.000000 -23.740600 0.000000
								CHANNELS 3 Zrotation Xrotation Yrotation
								JOINT RightFinger0
								{
									OFFSET 0.000000 -7.620900 0.000000
									CHANNELS 3 Zrotation Xrotation Yrotation
									End Site
									{
									    OFFSET 0.000000 -5.000000 0.000000
									}
								}
							}
						}
					}
				}
				JOINT Neck
				{
					OFFSET 0.000000 10.384400 0.000000
					CHANNELS 3 Zrotation Xrotation Yrotation
					JOINT Head
					{
						OFFSET 0.000000 10.146900 0.000000
						CHANNELS 3 Zrotation Xrotation Yrotation
						JOINT HeadTip
						{
							OFFSET 0.000000 10.000000 0.000000
							CHANNELS 3 Zrotation Xrotation Yrotation
							End Site
							{
							    OFFSET 0.000000 5.000000 0.000000
							}
						}
					}
				}
			}
		}
	}
}
MOTION
Frames:	9
Frame Time:	0.033332
-197.667700 86.265500 -33.722900 -1.165181 1.098728 -1.389911 -3.889053 -3.832051 -26.097368 -0.000000 8.242766 -0.000000 5.571450 15.480477 -0.939864 -0.000000 -0.794569 -0.000000 0.000000 0.000000 -0.000000 4.546416 -2.931125 30.967412 -0.000000 9.045496 -0.000000 -1.564664 13.581896 -6.639846 -0.000000 -2.693476 -0.000000 -0.000000 -0.000000 -0.000000 0.984022 -0.729092 -0.120039 0.000000 1.112546 0.000000 0.000000 -0.000000 -0.000000 0.943899 -0.000000 4.089786 87.483987 -9.303677 14.607153 -0.000000 -10.365100 0.000000 -0.573174 10.812426 -15.306123 -0.000000 0.000000 -0.000000 -3.519076 0.000000 -4.984836 -89.214208 -14.412735 -16.839289 -0.000007 -2.670294 -0.000000 -0.240851 21.641439 23.211354 -0.000000 -0.000000 -0.000000 0.000000 -0.000000 -0.000000 -4.121527 1.974279 0.428203 -0.000000 0.000000 -0.000000 
-197.657000 86.266700 -33.723600 -1.163667 1.100993 -1.388797 -3.900546 -3.836138 -26.101881 -0.000000 8.248862 0.000000 5.586185 15.517398 -0.907279 -0.000000 -0.833567 -0.000000 0.000000 0.000000 -0.000000 4.531645 -2.931809 30.940290 -0.000000 9.031552 -0.000000 -1.551819 13.594342 -6.614103 -0.000000 -2.732793 -0.000000 0.000000 -0.000000 0.000000 0.981411 -0.727044 -0.117520 -0.000000 1.120505 -0.000000 0.000000 0.000000 0.000000 0.957824 -0.000000 4.089904 87.441285 -9.307529 14.621396 -0.000000 -10.362546 -0.000000 -0.445218 10.811423 -15.202484 0.000000 0.000000 -0.000000 -3.516725 -0.000000 -4.995001 -89.214424 -14.391651 -16.812301 -0.000007 -2.707753 -0.000000 -0.238900 21.662279 23.155276 0.000000 0.000000 -0.000000 0.000000 0.000000 0.000000 -4.202610 1.996594 0.450628 -0.000000 0.000000 -0.000000 
-197.647400 86.267800 -33.727500 -1.163842 1.104634 -1.372002 -3.903557 -3.837957 -26.101829 -0.000000 8.239198 0.000000 5.612271 15.553853 -0.939825 0.000000 -0.885630 0.000000 0.000000 -0.000000 -0.000000 4.524232 -2.939385 30.925196 -0.000000 9.025626 -0.000000 -1.564599 13.603440 -6.614252 0.000000 -2.714315 -0.000000 0.000000 0.000000 -0.000000 0.982901 -0.729897 -0.124662 0.000000 1.130687 -0.000000 -0.000000 0.000000 0.000000 0.949918 0.000000 4.094924 87.446596 -9.326739 14.617312 -0.000000 -10.341377 0.000000 -0.466758 10.811290 -15.243484 -0.000000 0.000000 -0.000000 -3.532064 0.000000 -5.001181 -89.212675 -14.384793 -16.872227 -0.000007 -2.693821 -0.000000 -0.262329 21.603050 23.260938 0.000000 0.000000 -0.000000 -0.000000 0.000000 0.000000 -4.252093 2.037564 0.450937 -0.000000 0.000000 -0.000000 
-197.632600 86.268400 -33.729400 -1.160548 1.101995 -1.368925 -3.914653 -3.835113 -26.091286 -0.000000 8.234671 -0.000000 5.571328 15.532495 -0.950973 0.000000 -0.837955 0.000000 -0.000000 0.000000 -0.000000 4.512405 -2.940178 30.928343 0.000000 9.029592 0.000000 -1.547745 13.595634 -6.622383 -0.000000 -2.719739 -0.000000 0.000000 0.000000 -0.000000 0.990193 -0.725462 -0.115246 -0.000000 1.132540 -0.000000 0.000000 0.000000 -0.000000 0.924624 0.000000 4.106658 87.458298 -9.352152 14.629454 -0.000000 -10.354351 -0.000000 -0.420872 10.835888 -15.223898 -0.000000 0.000000 -0.000000 -3.549581 0.000000 -5.013402 -89.221504 -14.365618 -16.825732 -0.000007 -2.731086 -0.000000 -0.282465 21.643703 23.224130 -0.000000 -0.000000 -0.000000 0.000000 0.000000 -0.000000 -4.286587 2.069738 0.509589 -0.000000 0.000000 0.000000 
-197.617700 86.268600 -33.731500 -1.158506 1.104427 -1.373118 -3.927560 -3.840294 -26.114477 -0.000000 8.233103 0.000000 5.628112 15.546619 -0.946248 -0.000000 -0.837393 -0.000000 -0.000000 -0.000000 -0.000000 4.500948 -2.948031 30.915783 0.000000 9.040293 -0.000000 -1.538810 13.597213 -6.604513 0.000000 -2.699919 -0.000000 0.000000 -0.000000 -0.000000 1.003375 -0.737630 -0.101111 -0.000000 1.129497 0.000000 -0.000000 0.000000 -0.000000 0.891818 0.000000 4.114290 87.466082 -9.363369 14.658212 0.000000 -10.380642 0.000000 -0.356014 10.829544 -15.235025 0.000000 -0.000000 -0.000000 -3.549382 0.000000 -5.028632 -89.257996 -14.381522 -16.836488 -0.000007 -2.731108 -0.000000 -0.290914 21.671843 23.205349 0.000000 0.000000 0.000000 -0.000000 0.000000 -0.000000 -4.301794 2.155705 0.539203 0.000000 0.000000 -0.000000 
-197.606400 86.269400 -33.732700 -1.161063 1.101199 -1.381148 -3.928494 -3.835964 -26.094468 -0.000000 8.225490 -0.000000 5.588264 15.521803 -0.959461 0.000000 -0.774270 -0.000000 0.000000 0.000000 -0.000000 4.495217 -2.937641 30.936051 0.000000 9.025713 0.000000 -1.544170 13.601624 -6.627242 -0.000000 -2.732507 -0.000000 -0.000000 0.000000 -0.000000 1.018112 -0.750800 -0.090808 0.000000 1.121994 -0.000000 0.000000 0.000000 -0.000000 0.835400 0.000000 4.129201 87.488910 -9.396509 14.796896 -0.000000 -10.345142 0.000000 -0.338910 10.808068 -15.279480 -0.000000 -0.000000 -0.000000 -3.536832 -0.000000 -5.044175 -89.277844 -14.437932 -16.765201 -0.000007 -2.754289 -0.000000 -0.417489 21.731302 23.378958 0.000000 0.000000 -0.000000 0.000000 0.000000 -0.000000 -4.345413 2.275142 0.544466 -0.000000 0.000000 0.000000 
-197.595400 86.268500 -33.734600 -1.158404 1.091880 -1.388832 -3.942145 -3.834879 -26.087550 0.000000 8.235538 -0.000000 5.590329 15.564914 -0.941841 0.000000 -0.854373 -0.000000 -0.000000 -0.000000 -0.000000 4.483495 -2.930979 30.916068 -0.000000 9.027103 0.000000 -1.554336 13.596508 -6.599314 -0.000000 -2.731735 0.000000 -0.000000 0.000000 -0.000000 1.023640 -0.757922 -0.093586 0.000000 1.118960 -0.000000 0.000000 0.000000 -0.000000 0.788457 0.000000 4.165233 87.467738 -9.441933 14.929153 -0.000000 -10.345285 -0.000000 -0.254557 10.861939 -15.075317 0.000000 -0.000000 -0.000000 -3.488841 -0.000000 -5.048671 -89.293177 -14.506451 -16.744544 -0.000007 -2.807934 -0.000000 -0.662634 21.707463 23.532706 0.000000 0.000000 -0.000000 0.000000 0.000000 -0.000000 -4.321209 2.338022 0.581191 0.000000 0.000000 0.000000 
-197.586200 86.267000 -33.738400 -1.164205 1.079026 -1.413397 -3.947521 -3.836203 -26.085666 0.000000 8.252024 -0.000000 5.569515 15.570950 -0.919854 -0.000000 -0.838693 -0.000000 0.000000 0.000000 -0.000000 4.484324 -2.921850 30.900938 -0.000000 9.039287 -0.000000 -1.561533 13.592559 -6.557371 -0.000000 -2.764693 0.000000 -0.000000 0.000000 -0.000000 1.037972 -0.763611 -0.074836 -0.000000 1.112351 -0.000000 0.000000 0.000000 -0.000000 0.724425 0.000000 4.181255 87.419701 -9.485380 15.003146 0.000000 -10.341866 -0.000000 0.084644 10.906763 -14.939576 -0.000000 0.000000 0.000000 -3.418235 -0.000000 -5.020245 -89.290923 -14.500221 -16.714214 -0.000008 -2.952103 -0.000000 -0.800876 21.698818 23.438113 -0.000000 0.000000 -0.000000 0.000000 0.000000 -0.000000 -4.313517 2.408968 0.604057 0.000000 0.000000 -0.000000 
-197.581200 86.265900 -33.746000 -1.167981 1.061758 -1.438819 -3.945915 -3.829875 -26.074515 -0.000000 8.255047 -0.000000 5.591485 15.574063 -0.907017 0.000000 -0.812661 -0.000000 0.000000 -0.000000 0.000000 4.489197 -2.908544 30.938040 0.000000 9.050630 -0.000000 -1.556605 13.578787 -6.576576 -0.000000 -2.755932 0.000000 -0.000000 0.000000 0.000000 1.039479 -0.764819 -0.040808 0.000000 1.114526 -0.000000 -0.000000 0.000000 0.000000 0.696611 0.000000 4.176856 87.327523 -9.530129 15.028899 -0.000000 -10.348437 -0.000000 0.175076 10.933954 -14.881277 -0.000000 0.000000 -0.000000 -3.371093 0.000000 -4.986536 -89.233558 -14.499047 -16.713813 -0.000008 -3.030900 -0.000000 -0.784608 21.722793 23.511565 0.000000 0.000000 -0.000000 -0.000000 0.000000 0.000000 -4.291825 2.454445 0.602068 -0.000000 0.000000 0.000000 
